<svg id="visual" viewBox="0 0 900 600" width="900" height="600" xmlns="http://www.w3.org/2000/svg" xmlns:xlink="http://www.w3.org/1999/xlink" version="1.1"><rect x="0" y="0" width="900" height="600" fill="#ced6e0"></rect><path d="M0 473L21.5 482.7C43 492.3 86 511.7 128.8 518.5C171.7 525.3 214.3 519.7 257.2 507C300 494.3 343 474.7 385.8 476.5C428.7 478.3 471.3 501.7 514.2 514C557 526.3 600 527.7 642.8 511.8C685.7 496 728.3 463 771.2 446.8C814 430.7 857 431.3 878.5 431.7L900 432L900 601L878.5 601C857 601 814 601 771.2 601C728.3 601 685.7 601 642.8 601C600 601 557 601 514.2 601C471.3 601 428.7 601 385.8 601C343 601 300 601 257.2 601C214.3 601 171.7 601 128.8 601C86 601 43 601 21.5 601L0 601Z" fill="#009473" stroke-linecap="round" stroke-linejoin="miter"></path></svg>